<?xml version="1.0" encoding="utf-8"?> <!-- Generator: IcoMoon.io --> <!DOCTYPE svg PUBLIC "-//W3C//DTD SVG 1.1//EN" "http://www.w3.org/Graphics/SVG/1.1/DTD/svg11.dtd"> <svg width="512" height="512" viewBox="0 0 512 512" xmlns="http://www.w3.org/2000/svg" xmlns:xlink="http://www.w3.org/1999/xlink" fill="#000000"><path d="M 152.00,304.00c0.00,57.438, 46.562,104.00, 104.00,104.00s 104.00-46.562, 104.00-104.00s-46.562-104.00-104.00-104.00S 152.00,246.562, 152.00,304.00z M 480.00,128.00L 368.00,128.00 c-8.00-32.00-16.00-64.00-48.00-64.00L 192.00,64.00 c-32.00,0.00-40.00,32.00-48.00,64.00L 32.00,128.00 c-17.60,0.00-32.00,14.40-32.00,32.00l0.00,288.00 c0.00,17.60, 14.40,32.00, 32.00,32.00l 448.00,0.00 c 17.60,0.00, 32.00-14.40, 32.00-32.00L 512.00,160.00 C 512.00,142.40, 497.60,128.00, 480.00,128.00z M 256.00,446.00c-78.425,0.00-142.00-63.574-142.00-142.00c0.00-78.425, 63.575-142.00, 142.00-142.00c 78.426,0.00, 142.00,63.575, 142.00,142.00 C 398.00,382.426, 334.427,446.00, 256.00,446.00z M 480.00,224.00l-64.00,0.00 l0.00-32.00 l 64.00,0.00 L 480.00,224.00 z" ></path></svg>