<?xml version="1.0" encoding="utf-8"?>
<!-- Generator: Adobe Illustrator 14.0.0, SVG Export Plug-In . SVG Version: 6.00 Build 43363)  -->
<!DOCTYPE svg PUBLIC "-//W3C//DTD SVG 1.0//EN" "http://www.w3.org/TR/2001/REC-SVG-20010904/DTD/svg10.dtd">
<svg version="1.0" id="Layer_1" xmlns="http://www.w3.org/2000/svg" xmlns:xlink="http://www.w3.org/1999/xlink" x="0px" y="0px"
	 width="100px" height="55.154px" viewBox="0 0 100 55.154" enable-background="new 0 0 100 55.154" xml:space="preserve">
<path d="M77.959,11.074c-3.73,0-7.34,0.932-10.543,2.682C63.516,5.536,55.109,0,45.693,0c-12.85,0-23.376,10.141-23.998,22.838
	c-5.901,0.703-10.961,4.62-13.149,10.089C3.643,34.152,0,38.595,0,43.873c0,6.22,5.061,11.281,11.282,11.281h32.974
	c0-5.915,0-11.83,0-17.744c-1.384,0-4.083,0-5.468,0c-1.058,0-1.413-1.208-0.802-1.94c3.298-3.962,7.912-7.925,11.21-11.887
	c0.242-0.291,0.528-0.397,0.803-0.378c0.275-0.019,0.561,0.087,0.803,0.378c3.298,3.962,7.913,7.925,11.21,11.887
	c0.61,0.732,0.256,1.94-0.803,1.94c-1.385,0-4.084,0-5.468,0c0,5.914,0,11.829,0,17.744h22.216c12.154,0,22.041-9.887,22.041-22.04
	S90.111,11.074,77.959,11.074z"/>
</svg>
