<?xml version="1.0" encoding="utf-8"?>
<!-- Generator: Adobe Illustrator 28.0.0, SVG Export Plug-In . SVG Version: 6.00 Build 0)  -->
<svg version="1.1" id="google_x5F_icon" xmlns="http://www.w3.org/2000/svg" xmlns:xlink="http://www.w3.org/1999/xlink" x="0px"
	 y="0px" viewBox="0 0 32 32" style="enable-background:new 0 0 32 32;" xml:space="preserve">
<style type="text/css">
	.st0{fill:#FEFEFE;}
	.st1{fill:#E84135;}
	.st2{fill:#34A853;}
	.st3{fill:#4285F3;}
	.st4{fill:#F9BA09;}
</style>
<rect id="Background" class="st0" width="32" height="32"/>
<g id="G">
	<path id="red" class="st1" d="M2.5,9.1C3.3,7.3,4.5,5.8,6,4.5c2.4-2.2,5.3-3.5,8.5-3.8c4.5-0.5,8.5,0.7,12,3.7
		c0.2,0.2,0.3,0.3,0,0.5c-1.3,1.3-2.7,2.6-4,4c-0.1,0.1-0.2,0.2-0.4,0.1c-3.1-2.8-8-2.9-11.4-0.2C9.3,9.8,8.2,11.3,7.6,13
		c-0.1-0.1-0.2-0.1-0.3-0.2C5.7,11.6,4.1,10.3,2.5,9.1z"/>
	<path id="green" class="st2" d="M26.6,27.7c-1.2,1.1-2.5,2-4,2.6C16.7,32.6,9.7,31.5,5,26.6c-1-1.1-1.9-2.3-2.5-3.6
		c1.7-1.3,3.4-2.6,5.1-4c0.6,1.6,1.4,2.9,2.7,4c2.1,1.8,4.5,2.6,7.3,2.3c1.4-0.2,2.8-0.6,4-1.4c0,0,0.1,0,0.1,0
		c0.7,0.5,1.3,1.1,2,1.6C24.6,26.2,25.6,26.9,26.6,27.7z"/>
	<path id="blue" class="st3" d="M26.6,27.7c-1-0.8-2-1.5-3-2.3c-0.7-0.5-1.3-1-2-1.6c0.8-0.6,1.5-1.2,2-2c0.6-0.8,0.9-1.8,1.1-2.8
		c-0.1,0-0.2,0-0.4,0c-2.6,0-5.1,0-7.7,0c-0.3,0-0.3-0.1-0.3-0.3c0-1.8,0-3.5,0-5.3c0-0.2,0-0.3,0.3-0.3c4.7,0,9.3,0,14,0
		c0.2,0,0.3,0.1,0.3,0.3c0.3,1.7,0.3,3.4,0.1,5.2c-0.2,1.8-0.7,3.5-1.5,5.1C28.9,25.2,27.9,26.6,26.6,27.7z"/>
	<path id="yellow" class="st4" d="M7.6,19c-1.7,1.3-3.4,2.6-5.1,4c-0.7-1.2-1.1-2.5-1.4-3.9c-0.7-3.4-0.2-6.7,1.3-9.8
		c0-0.1,0.1-0.1,0.1-0.2c1.6,1.3,3.2,2.5,4.9,3.8C7.4,12.9,7.5,13,7.6,13C7,15,7,17,7.6,19z"/>
</g>
</svg>
