<?xml version="1.0" encoding="UTF-8" standalone="no"?>
<svg
   xmlns:dc="http://purl.org/dc/elements/1.1/"
   xmlns:cc="http://creativecommons.org/ns#"
   xmlns:rdf="http://www.w3.org/1999/02/22-rdf-syntax-ns#"
   xmlns:svg="http://www.w3.org/2000/svg"
   xmlns="http://www.w3.org/2000/svg"
   xmlns:sodipodi="http://sodipodi.sourceforge.net/DTD/sodipodi-0.dtd"
   xmlns:inkscape="http://www.inkscape.org/namespaces/inkscape"
   version="1.1"
   x="0px"
   y="0px"
   width="512px"
   height="512px"
   viewBox="0 0 512 512"
   enable-background="new 0 0 512 512"
   xml:space="preserve"
   id="svg2"
   inkscape:version="0.48.4 r9939"
   sodipodi:docname="icon_512.svg"
   inkscape:export-filename="C:\src\chrome-app-samples\image-edit\assets\icon_128.png"
   inkscape:export-xdpi="22.5"
   inkscape:export-ydpi="22.5"><metadata
     id="metadata69"><rdf:RDF><cc:Work
         rdf:about=""><dc:format>image/svg+xml</dc:format><dc:type
           rdf:resource="http://purl.org/dc/dcmitype/StillImage" /><dc:title></dc:title></cc:Work></rdf:RDF></metadata><sodipodi:namedview
     pagecolor="#ffffff"
     bordercolor="#666666"
     borderopacity="1"
     objecttolerance="10"
     gridtolerance="10"
     guidetolerance="10"
     inkscape:pageopacity="1"
     inkscape:pageshadow="2"
     inkscape:window-width="1920"
     inkscape:window-height="1138"
     id="namedview67"
     showgrid="false"
     inkscape:zoom="0.4609375"
     inkscape:cx="257.08475"
     inkscape:cy="-177.89831"
     inkscape:window-x="-8"
     inkscape:window-y="-8"
     inkscape:window-maximized="1"
     inkscape:current-layer="svg2" /><defs
     id="defs4"><style
       id="style6"> </style><linearGradient
       x1="0"
       y1="0"
       x2="0"
       y2="308.111234705228"
       id="_0_"
       gradientUnits="userSpaceOnUse"><stop
         offset="0"
         style="stop-color:rgb(184, 198, 223)"
         id="stop9" /><stop
         offset="1"
         style="stop-color:rgb(109, 136, 183)"
         id="stop11" /></linearGradient><linearGradient
       x1="0"
       y1="0"
       x2="0"
       y2="308.111234705228"
       id="_1_"
       gradientUnits="userSpaceOnUse"><stop
         offset="0"
         style="stop-color:rgb(180, 227, 145)"
         id="stop14" /><stop
         offset="0.56"
         style="stop-color:rgb(97, 196, 25)"
         id="stop16" /><stop
         offset="1"
         style="stop-color:rgb(180, 227, 145)"
         id="stop18" /></linearGradient><linearGradient
       x1="0"
       y1="0"
       x2="0"
       y2="308.111234705228"
       id="_2_"
       gradientUnits="userSpaceOnUse"><stop
         offset="0"
         style="stop-color:rgb(180, 227, 145)"
         id="stop21" /><stop
         offset="0.56"
         style="stop-color:rgb(97, 196, 25)"
         id="stop23" /><stop
         offset="1"
         style="stop-color:rgb(180, 227, 145)"
         id="stop25" /></linearGradient><linearGradient
       x1="0"
       y1="0"
       x2="0"
       y2="177.99081213903727"
       id="_3_"
       gradientUnits="userSpaceOnUse"><stop
         offset="0"
         style="stop-color:rgb(201, 222, 150)"
         id="stop28" /><stop
         offset="0.44"
         style="stop-color:rgb(138, 182, 107)"
         id="stop30" /><stop
         offset="1"
         style="stop-color:rgb(57, 130, 53)"
         id="stop32" /></linearGradient></defs><g
     transform="translate(-4.556172,46.653226)"
     type="LAYER"
     name="workspace"
     id="workspace" /><g
     transform="translate(-4.556172,46.653226)"
     type="LAYER"
     name="Layer 01"
     id="Layer 01"><path
       transform="translate(55.813126,71.190211)"
       width="423.15461624026693"
       height="308.111234705228"
       stroke-miterlimit="3"
       d="m 423.15462,0 0,308.11123 L 0,308.11123 0,0 423.15462,0 z"
       id="path36"
       style="fill:url(#_0_);stroke:none"
       inkscape:connector-curvature="0" /><path
       transform="translate(-5.7428221,-44.116388)"
       width="449.32748130978075"
       height="201.61067853170195"
       stroke-miterlimit="3"
       d="m 51.826474,424.29366 0.04761,-102.25069 59.182656,-97.65142 70.05117,67.77308 63.78642,-46.70078 48.97886,49.54839 73.4683,-72.32926 49.52326,62.26834 44.99222,-26.76751 39.297,53.53503 -7.37865,101.18439"
       id="path38"
       style="fill:url(#_1_);stroke:none"
       inkscape:connector-curvature="0" /><path
       transform="translate(-5.7428221,-44.116388)"
       stroke-miterlimit="3"
       d="M 493.77531,412.90323"
       id="path40"
       style="fill:url(#_2_);stroke:#000000;stroke-miterlimit:3"
       inkscape:connector-curvature="0" /><path
       transform="translate(555.27108,130.49206)"
       width="449.3274813097807"
       height="116.46718576195792"
       stroke-miterlimit="3"
       d="m -51.826474,245.1075 -0.04761,-59.06855 -59.182656,-56.41163 -70.05117,39.1514 -63.78642,-26.97828 -48.97886,28.6233 -73.4683,-41.78343 -49.52326,35.9714 -44.99222,-15.46316 -39.297,30.92632 7.37865,58.45256"
       id="path42"
       style="fill:url(#_3_);stroke:none"
       inkscape:connector-curvature="0" /><path
       transform="translate(62.077864,26.197998)"
       width="50.68743047830921"
       height="374.7452725250278"
       stroke-miterlimit="3"
       d="m 0,0 -50.68743,0 0,374.74527 50.68743,0 L 0,0 z"
       id="path44"
       inkscape:connector-curvature="0"
       style="fill:#ffffff;stroke:none" /><path
       transform="translate(509.72191,36.449388)"
       width="34.17130144605119"
       height="374.7452725250278"
       stroke-miterlimit="3"
       d="m 0,0 -34.171301,0 0,374.74527 L 0,374.74527 0,0 z"
       id="path46"
       inkscape:connector-curvature="0"
       style="fill:#ffffff;stroke:none" /><path
       transform="translate(28.476085,75.746385)"
       width="465.2992213570634"
       height="41.57508342602892"
       stroke-miterlimit="3"
       d="m 0,0 465.29922,0 0,-41.575083 L 0,-41.575083 0,0 z"
       id="path48"
       inkscape:connector-curvature="0"
       style="fill:#ffffff;stroke:none" /><path
       transform="translate(39.296997,363.35484)"
       width="449.35261401557295"
       height="45.56173526140151"
       stroke-miterlimit="3"
       d="m 0,0 449.35261,0 0,45.561735 L 0,45.561735 0,0 z"
       id="path50"
       inkscape:connector-curvature="0"
       style="fill:#ffffff;stroke:none" /></g><g
     transform="translate(-4.556172,46.653226)"
     type="LAYER"
     name="crop"
     id="crop"><path
       transform="translate(62.077864,75.176863)"
       width="412.9032258064516"
       height="288.17797552836487"
       stroke-miterlimit="3"
       d="m 0,0 412.90323,0 0,288.17798 L 0,288.17798 0,0 z"
       id="path53"
       inkscape:connector-curvature="0"
       style="fill:none;stroke:#000000;stroke-width:5;stroke-miterlimit:3" /><g
       transform="translate(89.925473,15.946607)"
       id="g55"><path
         transform="translate(0.05895439,0)"
         width="25"
         height="328.6140155728587"
         stroke-miterlimit="3"
         d="m 0,0 25,0 0,328.61402 -25,0 L 0,0 z"
         id="path57"
         inkscape:connector-curvature="0"
         style="fill:#000000;stroke:#000000;stroke-width:1.01037049;stroke-miterlimit:3" /><path
         transform="translate(0,329.12458)"
         width="404.92992213570636"
         height="25"
         stroke-miterlimit="3"
         d="m 0,0 404.92992,0 0,-25 L 0,-25 0,0 z"
         id="path59"
         inkscape:connector-curvature="0"
         style="fill:#000000;stroke:#000000;stroke-width:0.936979;stroke-miterlimit:3" /></g><g
       transform="matrix(-1,0,0,-1,439.67075,450.74694)"
       id="g61"><path
         transform="translate(0.05895439,0)"
         width="25"
         height="328.6140155728587"
         stroke-miterlimit="3"
         d="m 25,0 0,328.61402 -25,0 L 0,0 25,0 z"
         id="path63"
         inkscape:connector-curvature="0"
         style="fill:#000000;stroke:#000000;stroke-width:1.01037049;stroke-miterlimit:3" /><path
         transform="translate(0,329.12458)"
         width="404.92992213570636"
         height="25"
         stroke-miterlimit="3"
         d="m 404.92992,0 0,-25 L 0,-25 0,0 404.92992,0 z"
         id="path65"
         inkscape:connector-curvature="0"
         style="fill:#000000;stroke:#000000;stroke-width:0.936979;stroke-miterlimit:3" /></g></g></svg>