<?xml version="1.0" encoding="utf-8"?><svg xmlns="http://www.w3.org/2000/svg" xmlns:xlink="http://www.w3.org/1999/xlink" version="1.1" x="0px" y="0px" width="512px" height="512px" viewBox="0 0 512 512" enable-background="new 0 0 512 512" xml:space="preserve" xmlns:xml="http://www.w3.org/XML/1998/namespace"><defs><style><![CDATA[ ]]></style><linearGradient x1="0" y1="0" x2="0" y2="308.111234705228" id="_0_" gradientUnits="userSpaceOnUse" gradientTransform="matrix(1 0 0 1 0 0)"><stop offset="0" style="stop-color:rgb(184, 198, 223)"/><stop offset="1" style="stop-color:rgb(109, 136, 183)"/></linearGradient><linearGradient x1="0" y1="0" x2="0" y2="308.111234705228" id="_1_" gradientUnits="userSpaceOnUse" gradientTransform="matrix(1 0 0 1 0 0)"><stop offset="0" style="stop-color:rgb(180, 227, 145)"/><stop offset="0.56" style="stop-color:rgb(97, 196, 25)"/><stop offset="1" style="stop-color:rgb(180, 227, 145)"/></linearGradient><linearGradient x1="0" y1="0" x2="0" y2="308.111234705228" id="_2_" gradientUnits="userSpaceOnUse" gradientTransform="matrix(1 0 0 1 0 0)"><stop offset="0" style="stop-color:rgb(180, 227, 145)"/><stop offset="0.56" style="stop-color:rgb(97, 196, 25)"/><stop offset="1" style="stop-color:rgb(180, 227, 145)"/></linearGradient><linearGradient x1="0" y1="0" x2="0" y2="177.99081213903727" id="_3_" gradientUnits="userSpaceOnUse" gradientTransform="matrix(1 0 0 1 0 0)"><stop offset="0" style="stop-color:rgb(201, 222, 150)"/><stop offset="0.44" style="stop-color:rgb(138, 182, 107)"/><stop offset="1" style="stop-color:rgb(57, 130, 53)"/></linearGradient></defs><g transform="matrix(1 0 0 1 0 0)" type="LAYER" name="workspace" id="workspace"/><g transform="matrix(1 0 0 1 0 0)" type="LAYER" name="Layer 01" id="Layer 01"><path transform="matrix(1 0 0 1 55.81312569521586 71.19021134593993)" width="423.15461624026693" height="308.111234705228" stroke-miterlimit="3" stroke="none" fill="url(#_0_)" d="M423.15461624026693,0 L423.15461624026693,308.111234705228 L0,308.111234705228 L0,0 L423.15461624026693,0 Z "/><path transform="matrix(1 0 0 1 -5.7428220695461505 -44.11638751118712)" width="449.32748130978075" height="201.61067853170195" stroke-width="0" stroke-miterlimit="3" stroke="none" fill="url(#_1_)" d="M51.82647385984424,424.293659621802 L51.874079021715204,322.0429726057366 L111.05672969966665,224.39154616240265 L181.10789766407154,292.16462736373745 L244.89432703003368,245.46384872080085 L293.8731924360403,295.012235817575 L367.3414905450503,222.68298109010007 L416.8647449360322,284.95132483818713 L461.8569585066662,258.18380537211374 L501.153955169625,311.7188443042606 L493.7753058954397,412.90322580645153 "/><path transform="matrix(1 0 0 1 -5.7428220695461505 -44.11638751118712)" stroke-miterlimit="3" stroke="#000000" fill="url(#_2_)" d="M493.7753058954397,412.90322580645153 "/><path transform="matrix(1 0 0 1 555.2710821454351 130.49205960169195)" width="449.3274813097807" height="116.46718576195792" stroke-width="0" stroke-miterlimit="3" stroke="none" fill="url(#_3_)" d="M-51.82647385984433,245.10749545948764 L-51.87407902171526,186.03894886404865 L-111.05672969966668,129.62731974635986 L-181.10789766407163,168.77871834995594 L-244.89432703003376,141.80044368193174 L-293.8731924360403,170.42373509800612 L-367.34149054505036,128.64030969752972 L-416.8647449360322,164.61171166499813 L-461.8569585066663,149.14855423332577 L-501.153955169625,180.0748690966706 L-493.7753058954397,238.52742846728663 "/><path transform="matrix(1 0 0 1 62.07786429365959 26.197997775305893)" width="50.68743047830921" height="374.7452725250278" stroke-miterlimit="3" stroke="none" fill="#FFFFFF" d="M0,0 L-50.68743047830921,0 L-50.68743047830921,374.7452725250278 L0,374.7452725250278 L0,0 Z "/><path transform="matrix(1 0 0 1 509.72191323692994 36.44938820912125)" width="34.17130144605119" height="374.7452725250278" stroke-width="0.8210708272559607" stroke-miterlimit="3" stroke="none" fill="#FFFFFF" d="M0,0 L-34.17130144605119,0 L-34.17130144605119,374.7452725250278 L0,374.7452725250278 L0,0 Z "/><path transform="matrix(1 0 0 1 28.476084538375943 75.74638487208009)" width="465.2992213570634" height="41.57508342602892" stroke-miterlimit="3" stroke="none" fill="#FFFFFF" d="M0,0 L465.2992213570634,0 L465.2992213570634,-41.57508342602892 L0,-41.57508342602892 L0,0 Z "/><path transform="matrix(1 0 0 1 39.29699666295883 363.35483870967744)" width="449.35261401557295" height="45.56173526140151" stroke-miterlimit="3" stroke="none" fill="#FFFFFF" d="M0,0 L449.35261401557295,0 L449.35261401557295,45.56173526140151 L0,45.56173526140151 L0,0 Z "/></g><g transform="matrix(1 0 0 1 0 0)" type="LAYER" name="crop" id="crop"><path transform="matrix(1 0 0 1 62.07786429365959 75.17686318131257)" width="412.9032258064516" height="288.17797552836487" stroke-width="5" stroke-miterlimit="3" stroke="#000000" fill="none" d="M0,0 L412.9032258064516,0 L412.9032258064516,288.17797552836487 L0,288.17797552836487 L0,0 Z "/><g transform="matrix(1 0 0 1 89.9254727474972 15.946607341490548)"><path transform="matrix(1 0 0 1 0.05895439377087541 0)" width="25" height="328.6140155728587" stroke-width="1.0103704636603394" stroke-miterlimit="3" stroke="#000000" fill="rgb(0, 0, 0)" d="M0,0 L25,0 L25,328.6140155728587 L0,328.6140155728587 L0,0 Z "/><path transform="matrix(1 0 0 1 0 329.1245828698554)" width="404.92992213570636" height="25" stroke-width="0.9369790219103094" stroke-miterlimit="3" stroke="#000000" fill="rgb(0, 0, 0)" d="M0,0 L404.92992213570636,0 L404.92992213570636,-25 L0,-25 L0,0 Z "/></g><g transform="matrix(-1.0000000000000009 0 0 -1.0000000000000009 439.6707452725251 450.7469410456063)"><path transform="matrix(1 0 0 1 0.05895439377087541 0)" width="25" height="328.6140155728587" stroke-width="1.0103704636603394" stroke-miterlimit="3" stroke="#000000" fill="rgb(0, 0, 0)" d="M25,0 L25,328.6140155728587 L0,328.6140155728587 L0,0 L25,0 Z "/><path transform="matrix(1 0 0 1 0 329.1245828698554)" width="404.92992213570636" height="25" stroke-width="0.9369790219103094" stroke-miterlimit="3" stroke="#000000" fill="rgb(0, 0, 0)" d="M404.92992213570636,0 L404.92992213570636,-25 L0,-25 L0,0 L404.92992213570636,0 Z "/></g></g></svg>